<?xml version="1.0" encoding="utf-8"?>
<!-- Generator: Adobe Illustrator 22.1.0, SVG Export Plug-In . SVG Version: 6.00 Build 0)  -->
<svg version="1.1" id="Layer_1" xmlns="http://www.w3.org/2000/svg" xmlns:xlink="http://www.w3.org/1999/xlink" x="0px" y="0px"
	 viewBox="0 0 422 422" style="enable-background:new 0 0 422 422;" xml:space="preserve">
<style type="text/css">
	.st0{fill:#E30613;}
	.st1{fill:#FFFFFF;}
</style>
<g>
	<polygon class="st0" points="421.2,211.6 392.8,235.5 414.1,266 380.5,281.7 393.1,316.6 356.5,323.1 359.7,360.1 322.7,357 
		316.2,393.5 281.3,380.9 265.5,414.5 235.1,393.2 211.2,421.6 187.2,393.2 156.8,414.5 141,380.9 106.1,393.5 99.6,356.9 
		62.7,360.1 65.8,323.1 29.3,316.6 41.9,281.7 8.3,266 29.5,235.5 1.2,211.6 29.5,187.7 8.3,157.2 41.9,141.5 29.3,106.6 
		65.8,100.1 62.7,63.1 99.7,66.2 106.2,29.7 141.1,42.3 156.8,8.7 187.2,30 211.2,1.6 235.1,30 265.5,8.7 281.3,42.3 316.2,29.7 
		322.7,66.3 359.7,63.1 356.5,100.1 393.1,106.6 380.5,141.5 414.1,157.2 392.8,187.7 	"/>
	<g>
		<path class="st1" d="M153.1,262.5H126l-26-69.7c1,8.2,2.7,20.1,2.7,36.7v33H83.8v-90h26.5l26.6,69.8c-1.2-7.3-2.8-19.1-2.8-33.5
			v-36.3h19.1V262.5z"/>
		<path class="st1" d="M222.9,187.7h-31.7v21.5h27.7v14.9h-27.7v23h33.9v15.3H170v-90h55.2L222.9,187.7z"/>
		<path class="st1" d="M323.5,262.5h-27.7l-11.2-68.7l-11.8,68.7h-27l-14.8-90h21.3l8.9,73.9l12.5-73.9h22.3l11.7,73.9l10.5-73.9
			h20.3L323.5,262.5z"/>
	</g>
</g>
</svg>
